HIERARCHY
ROOT ui
{
	 OFFSET 0 0 0
	 CHANNELS 3 XPosition YPosition Z Position
	 EndSite
	 {
	 OFFSET 0 -1 0
	 }
}
ROOT li
{
	 OFFSET 0 0 0
	 CHANNELS 3 XPosition YPosition Z Position
	 EndSite
	 {
	 OFFSET 0 -1 0
	 }
}
ROOT ul
{
	 OFFSET 0 0 0
	 CHANNELS 3 XPosition YPosition Z Position
	 EndSite
	 {
	 OFFSET 0 -1 0
	 }
}
ROOT ll
{
	 OFFSET 0 0 0
	 CHANNELS 3 XPosition YPosition Z Position
	 EndSite
	 {
	 OFFSET 0 -1 0
	 }
}
ROOT tt
{
	 OFFSET 0 0 0
	 CHANNELS 3 XPosition YPosition Z Position
	 EndSite
	 {
	 OFFSET 0 -1 0
	 }
}
ROOT tb
{
	 OFFSET 0 0 0
	 CHANNELS 3 XPosition YPosition Z Position
	 EndSite
	 {
	 OFFSET 0 -1 0
	 }
}
ROOT td
{
	 OFFSET 0 0 0
	 CHANNELS 3 XPosition YPosition Z Position
	 EndSite
	 {
	 OFFSET 0 -1 0
	 }
}
ROOT v
{
	 OFFSET 0 0 0
	 CHANNELS 3 XPosition YPosition Z Position
	 EndSite
	 {
	 OFFSET 0 -1 0
	 }
}
ROOT bn
{
	 OFFSET 0 0 0
	 CHANNELS 3 XPosition YPosition Z Position
	 EndSite
	 {
	 OFFSET 0 -1 0
	 }
}
MOTION
Frames: 32
Frame Time: 0.002
4.815399944782257E-4	-1.1102499812841415E-4	0		0.53447314453125	-2.352333251953125	0		-1.1502841796875	-0.10996722412109375	0		-0.6305474853515625	-2.27795654296875	0		1.106114501953125	-0.6366649169921875	0		2.661809814453125	0.13622813415527343	0		4.396791015625	0.4573981323242188	0		5.68898291015625	0.20189569091796875	0		-0.3193190612792969	5.85130712890625	0		
0.020744813919067382	-0.003839711904525757	0		0.4850381164550781	-2.342	0		-1.17205615234375	-0.11612049102783203	0		-0.65722607421875	-2.28401318359375	0		1.1044520263671875	-0.6370195922851563	0		2.668083740234375	0.13382138061523438	0		4.38327587890625	0.470361328125	0		5.68778173828125	0.2016162872314453	0		-0.3202742309570312	5.84987646484375	0		
0.00916579532623291	9.048579931259155E-4	0		0.548352294921875	-2.35234375	0		-1.1696610107421874	-0.11363872528076172	0		-0.6526710205078124	-2.27753759765625	0		1.0869476318359375	-0.6291359252929688	0		2.649047607421875	0.1758037567138672	0		4.400775390625	0.48187857055664063	0		5.6994423828125	0.20090834045410155	0		-0.308054443359375	5.8592490234375	0		
0.027639211654663084	0.00520603609085083	0		0.4762048034667969	-2.32967333984375	0		-1.1383162841796874	-0.11858773040771485	0		-0.6311130981445312	-2.275313720703125	0		1.10431982421875	-0.633764892578125	0		2.62431005859375	0.16687400817871093	0		4.3854794921875	0.5039004516601563	0		5.69484619140625	0.21812541198730467	0		-0.33922418212890626	5.8402607421875	0		
0.02001122856140137	-0.0021035358905792238	0		0.5325331420898437	-2.3488994140625	0		-1.147922607421875	-0.12493043518066406	0		-0.6246646118164062	-2.2858642578125	0		1.0879625244140625	-0.6248861083984375	0		2.63875927734375	0.16537916564941407	0		4.37592822265625	0.5038529968261719	0		5.695314453125	0.2386614532470703	0		-0.3410623779296875	5.83984228515625	0		
-0.007426328182220459	-0.0021158559322357177	0		0.4793046875	-2.343502197265625	0		-1.1534141845703125	-0.12933103942871094	0		-0.6280192260742188	-2.2892646484375	0		1.0804554443359375	-0.6321303100585938	0		2.621325927734375	0.16636862182617188	0		4.37164990234375	0.5167490844726562	0		5.69429052734375	0.23853068542480468	0		-0.34381918334960937	5.84044287109375	0		
0.012297508239746093	0.0021897659301757812	0		0.5040507507324219	-2.34723974609375	0		-1.1917349853515624	-0.12824655151367187	0		-0.698105712890625	-2.280682373046875	0		1.0661182861328125	-0.6342626953125	0		2.62124609375	0.18512141418457032	0		4.37247607421875	0.5305921630859375	0		5.70617138671875	0.23798684692382813	0		-0.3303845520019531	5.8488154296875	0		
0.022078092575073243	0.0036536240577697754	0		0.47902496337890627	-2.34223681640625	0		-1.1889310302734375	-0.1257560272216797	0		-0.6262621459960938	-2.28516357421875	0		1.0809815673828125	-0.6298062133789063	0		2.600033203125	0.18819827270507813	0		4.35347412109375	0.549747314453125	0		5.702806640625	0.3003168334960937	0		-0.3319960021972656	5.84841845703125	0		
0.014833662033081054	-0.0036220738887786865	0		0.529955078125	-2.348322509765625	0		-1.194109375	-0.12913938903808594	0		-0.6622108154296875	-2.2820625	0		1.0578956298828126	-0.62878271484375	0		2.622063232421875	0.20066749572753906	0		4.3583955078125	0.5565765380859375	0		5.71190576171875	0.28785723876953123	0		-0.3335176696777344	5.8480322265625	0		
-0.010030277252197265	0.008372530937194825	0		0.5010749206542969	-2.348234619140625	0		-1.1581585693359375	-0.1311027069091797	0		-0.6301737670898437	-2.287932373046875	0		1.07279541015625	-0.6362929077148437	0		2.592085205078125	0.20590855407714845	0		4.34242138671875	0.5637313842773437	0		5.717576171875	0.285947265625	0		-0.33494680786132813	5.8476591796875	0		
0.007929131984710694	7.643759846687317E-4	0		0.5242371215820313	-2.352880126953125	0		-1.1991119384765625	-0.1329435577392578	0		-0.6679520874023438	-2.287780517578125	0		1.0629305419921875	-0.6344268798828125	0		2.577249755859375	0.213948974609375	0		4.34164599609375	0.5776895141601562	0		5.7156884765625	0.3206781005859375	0		-0.337267822265625	5.848314453125	0		
-0.01397877025604248	-0.004254960060119629	0		0.4825356750488281	-2.354578857421875	0		-1.19994140625	-0.133345947265625	0		-0.6336799926757812	-2.2916455078125	0		1.0711060791015625	-0.6368021240234375	0		2.55645556640625	0.21809089660644532	0		4.32995458984375	0.5908233032226563	0		5.7215009765625	0.31884429931640623	0		-0.33653683471679685	5.84594287109375	0		
0.017375602722167968	0.0019850449562072753	0		0.47715399169921874	-2.3407802734375	0		-1.184775390625	-0.14095846557617187	0		-0.6990740966796875	-2.278071044921875	0		1.05146630859375	-0.6327633666992187	0		2.598935546875	0.23434954833984376	0		4.3434404296875	0.6096149291992188	0		5.73602099609375	0.33058169555664063	0		-0.33767889404296875	5.8456162109375	0		
-0.005213890075683594	0.006009290218353272	0		0.5285730590820312	-2.34777001953125	0		-1.161289306640625	-0.13266555786132814	0		-0.630689208984375	-2.2873798828125	0		1.0638875732421875	-0.6311641235351563	0		2.545206298828125	0.22998614501953124	0		4.32986572265625	0.617802001953125	0		5.73140283203125	0.35164910888671874	0		-0.474974365234375	5.82822998046875	0		
0.01311390495300293	-0.002528439998626709	0		0.5241123657226563	-2.35194970703125	0		-1.2018621826171876	-0.134448974609375	0		-0.6701222534179687	-2.289142822265625	0		1.0603153076171874	-0.6353233032226563	0		2.567814697265625	0.2425557861328125	0		4.3255498046875	0.6378667602539062	0		5.72684814453125	0.3727226257324219	0		-0.35478179931640624	5.83622509765625	0		
-0.02132545280456543	-3.0630800127983093E-4	0		0.5217603149414063	-2.3541435546875	0		-1.1693839111328126	-0.13924038696289062	0		-0.635495849609375	-2.29292919921875	0		1.037900146484375	-0.634203857421875	0		2.539247314453125	0.23685391235351563	0		4.31404052734375	0.6380357666015625	0		5.73863720703125	0.37248159790039065	0		-0.355616455078125	5.8359482421875	0		
-0.02171344566345215	-5.465790033340454E-4	0		0.48048818969726564	-2.355779541015625	0		-1.2027047119140626	-0.13508900451660155	0		-0.6608150024414062	-2.297856689453125	0		1.05953369140625	-0.6356879272460938	0		2.557094482421875	0.25451295471191404	0		4.31787890625	0.656995361328125	0		5.73781689453125	0.4020837707519531	0		-0.3422130126953125	5.84549169921875	0		
0.015004351615905761	7.14352011680603E-4	0		0.5253928833007813	-2.35060205078125	0		-1.1970875244140624	-0.1414629364013672	0		-0.6230100708007813	-2.299645263671875	0		1.0462364501953125	-0.6376714477539063	0		2.536831298828125	0.2587100830078125	0		4.30500927734375	0.691191162109375	0		5.74553271484375	0.41755267333984375	0		-0.34284735107421876	5.8452490234375	0		
0.013890969276428222	0.008519319534301758	0		0.4733658142089844	-2.345064208984375	0		-1.2032205810546874	-0.13565196228027343	0		-0.6339884033203125	-2.2907353515625	0		1.06804345703125	-0.6381300659179687	0		2.564674072265625	0.26424578857421877	0		4.30065234375	0.6842633056640625	0		5.75401953125	0.43298773193359374	0		-0.4776548156738281	5.82587841796875	0		
0.008542346000671388	-0.006604623794555664	0		0.5232352905273437	-2.35292529296875	0		-1.170414306640625	-0.14035942077636718	0		-0.6251727905273438	-2.302083984375	0		1.0369766845703126	-0.6348465576171874	0		2.531522705078125	0.2646290588378906	0		4.30457373046875	0.6912190551757813	0		5.75686865234375	0.4503276672363281	0		-0.3447857360839844	5.84582421875	0		
0.008480541229248047	-0.006786580085754394	0		0.4693221740722656	-2.3493427734375	0		-1.2074666748046874	-0.14008418273925782	0		-0.6400780639648438	-2.298087646484375	0		1.0589263916015625	-0.6362860107421875	0		2.526545654296875	0.27162518310546874	0		4.29366162109375	0.7043744506835937	0		5.75682421875	0.4504432373046875	0		-0.3441166381835937	5.84461328125	0		
0.0035624051094055175	-0.0018885630369186402	0		0.49741046142578127	-2.350878662109375	0		-1.191546142578125	-0.1475205078125	0		-0.698983642578125	-2.298474365234375	0		1.0428968505859375	-0.6411951293945313	0		2.5404365234375	0.26336260986328125	0		4.29755029296875	0.6973180541992188	0		5.7676865234375	0.47785723876953123	0		-0.4605413513183594	5.83002099609375	0		
0.0187095832824707	0.0027478489875793458	0		0.4845598754882813	-2.351841552734375	0		-1.187406494140625	-0.143775146484375	0		-0.6099276123046875	-2.306873046875	0		1.0460400390625	-0.6383583374023437	0		2.550739013671875	0.28015444946289064	0		4.30187890625	0.7172527465820312	0		5.77582177734375	0.5191840209960937	0		-0.32933428955078126	5.85305322265625	0		
0.018847618103027344	0.0026032609939575196	0		0.527806884765625	-2.349558837890625	0		-1.1872640380859374	-0.1439566650390625	0		-0.670508544921875	-2.2912060546875	0		1.04619775390625	-0.638471435546875	0		2.526748046875	0.27141561889648436	0		4.292091796875	0.724375	0		5.77230419921875	0.5107055969238281	0		-0.4787707214355469	5.82493359375	0		
-0.017979162216186523	0.00197599196434021	0		0.4980293273925781	-2.351267578125	0		-1.195171142578125	-0.15101075744628906	0		-0.6393614501953125	-2.298777099609375	0		1.04335791015625	-0.64153369140625	0		2.52200634765625	0.2774197082519531	0		4.2851611328125	0.7174552001953125	0		5.76896484375	0.5281618041992188	0		-0.3444709777832031	5.843962890625	0		
-0.016887001037597656	-0.007155148029327393	0		0.5222442016601563	-2.35569921875	0		-1.1909124755859375	-0.14821221923828126	0		-0.7001264038085937	-2.301081298828125	0		1.04154736328125	-0.6445989990234375	0		2.52713232421875	0.2712952880859375	0		4.2853583984375	0.7174407958984375	0		5.77774267578125	0.54002392578125	0		-0.34439755249023435	5.84383642578125	0		
-0.021585382461547852	-0.002192176103591919	0		0.4815060119628906	-2.3572353515625	0		-1.190676025390625	-0.14834255981445313	0		-0.6279168701171876	-2.30717724609375	0		1.0438353271484375	-0.6417074584960938	0		2.518523193359375	0.2833681030273438	0		4.2839287109375	0.7434561767578125	0		5.78374853515625	0.5640933837890625	0		-0.32917276000976564	5.8525205078125	0		
0.010749256134033203	0.004283874988555908	0		0.5097946166992188	-2.357694091796875	0		-1.1804583740234376	-0.1505916748046875	0		-0.6954850463867187	-2.296359130859375	0		1.047131591796875	-0.6388162231445312	0		2.532501220703125	0.2641426086425781	0		4.29415478515625	0.7433194580078125	0		5.78838330078125	0.5968697509765625	0		-0.45017477416992185	5.844064453125	0		
-0.006016778945922852	0.0034406659603118898	0		0.5360569458007812	-2.360109130859375	0		-1.190181396484375	-0.148552978515625	0		-0.62530908203125	-2.305392333984375	0		1.044349609375	-0.6418285522460937	0		2.526986328125	0.2821978149414063	0		4.2843876953125	0.743464599609375	0		5.78855712890625	0.5969359741210938	0		-0.3299043884277344	5.85335791015625	0		
0.011239059448242187	0.004153792858123779	0		0.5234002075195312	-2.35598095703125	0		-1.1899346923828125	-0.14863218688964844	0		-0.6359130249023438	-2.297313232421875	0		1.05052392578125	-0.647946533203125	0		2.545061279296875	0.26994589233398436	0		4.2905361328125	0.7374070434570312	0		5.7916494140625	0.6090386352539062	0		-0.3297696838378906	5.85329443359375	0		
-0.020616233825683592	-0.0024542269706726073	0		0.5236791381835938	-2.356011962890625	0		-1.1896956787109374	-0.14869432067871094	0		-0.6376619262695312	-2.299338134765625	0		1.04871826171875	-0.6519407958984375	0		2.51230908203125	0.271396484375	0		4.28484033203125	0.7435244750976563	0		5.79181640625	0.6091487426757812	0		-0.3296392517089844	5.853248046875	0		
-0.015460202217102051	-0.007546218872070312	0		0.48089361572265626	-2.359447998046875	0		-1.1794971923828126	-0.1508741455078125	0		-0.685515380859375	-2.307726318359375	0		1.0569256591796874	-0.6540550537109375	0		2.538350830078125	0.25806597900390627	0		4.27795751953125	0.736668701171875	0		5.8035302734375	0.6348526611328125	0		-0.31245065307617187	5.85798828125	0		
